<?xml version="1.0" encoding="utf-8"?>
<svg id="visual" viewBox="0 0 960 540" width="960" height="540" version="1.1" xmlns="http://www.w3.org/2000/svg">
  <path d="M -76.57 276.677 L -61.916 279.867 C -47.118 283.153 -17.808 289.53 10.795 293.589 C 39.4 297.648 67.011 299.194 93.816 298.131 C 120.586 296.971 146.297 293.106 170.47 285.182 C 194.678 277.354 217.316 265.371 242.644 260.732 C 267.973 256.094 295.924 258.607 325.444 265.275 C 354.932 271.845 385.734 282.476 413.082 282.959 C 440.43 283.442 464.104 273.778 494.235 282.186 C 524.334 290.497 560.705 316.976 586.864 314.076 C 613.024 311.177 628.752 278.9 654.081 274.262 C 679.409 269.623 714.27 292.43 746.389 307.118 C 778.507 321.807 807.817 328.185 832.076 319.874 C 856.299 311.467 875.219 288.274 898.39 276.871 C 921.527 265.371 948.732 265.757 962.41 265.854 L 976.012 266.047 L 1013.7 373.315 L 1000.167 373.315 C 986.523 373.315 959.454 373.315 932.277 373.315 C 905.098 373.315 878.029 373.315 850.852 373.315 C 823.674 373.315 796.605 373.315 769.647 373.315 C 742.689 373.315 715.841 373.315 688.883 373.315 C 661.925 373.315 634.857 373.315 607.678 373.315 C 580.501 373.315 553.432 373.315 526.253 373.315 C 499.076 373.315 472.008 373.315 444.829 373.315 C 417.651 373.315 390.583 373.315 363.405 373.315 C 336.227 373.315 309.158 373.315 282.2 373.315 C 255.242 373.315 228.394 373.315 201.436 373.315 C 174.479 373.315 147.41 373.315 120.232 373.315 C 93.055 373.315 65.985 373.315 38.808 373.315 C 11.63 373.315 -15.439 373.315 -29.082 373.315 L -42.617 373.315 L -76.57 276.677 Z" fill="#2C4468" stroke-linecap="round" stroke-linejoin="miter" style="" transform="matrix(0.969075, 0.246765, -0.246765, 0.969075, 92.427945, -105.858161)"/>
  <path d="M -76.772 352.24 L -62.094 355.434 C -47.271 358.726 -17.913 365.114 10.738 369.18 C 39.39 373.245 67.047 374.795 93.896 373.73 C 120.71 372.568 146.465 368.696 170.677 360.758 C 194.925 352.918 217.6 340.916 242.971 336.269 C 268.341 331.622 296.338 334.139 325.907 340.818 C 355.444 347.401 386.298 358.049 413.691 358.532 C 441.084 359.016 464.797 349.337 494.978 357.758 C 525.127 366.082 561.559 392.606 587.761 389.702 C 613.964 386.798 629.718 354.467 655.089 349.82 C 680.459 345.174 715.377 368.018 747.55 382.733 C 779.721 397.446 809.08 403.834 833.378 395.51 C 857.642 387.089 876.593 363.856 899.802 352.434 C 922.978 340.916 950.228 341.302 963.929 341.399 L 977.553 341.593 L 1015.304 449.039 L 1001.747 449.039 C 988.081 449.039 960.968 449.039 933.745 449.039 C 906.522 449.039 879.408 449.039 852.185 449.039 C 824.963 449.039 797.849 449.039 770.847 449.039 C 743.843 449.039 716.951 449.039 689.948 449.039 C 662.946 449.039 635.833 449.039 608.609 449.039 C 581.387 449.039 554.273 449.039 527.05 449.039 C 499.827 449.039 472.715 449.039 445.491 449.039 C 418.268 449.039 391.155 449.039 363.931 449.039 C 336.709 449.039 309.596 449.039 282.592 449.039 C 255.589 449.039 228.697 449.039 201.694 449.039 C 174.692 449.039 147.579 449.039 120.356 449.039 C 93.134 449.039 66.019 449.039 38.797 449.039 C 11.574 449.039 -15.54 449.039 -29.206 449.039 L -42.763 449.039 L -76.772 352.24 Z" fill="#2C4468" stroke-linecap="round" stroke-linejoin="miter" style="" transform="matrix(-0.969075, -0.246765, 0.246765, -0.969075, 827.420086, 886.625088)"/>
</svg>