<svg id="visual" viewBox="0 0 1920 1080" width="1920" height="1080" xmlns="http://www.w3.org/2000/svg" xmlns:xlink="http://www.w3.org/1999/xlink" version="1.1"><rect x="0" y="0" width="1920" height="1080" fill="#001220"></rect><defs><linearGradient id="grad1_0" x1="43.8%" y1="0%" x2="100%" y2="100%"><stop offset="14.444444444444446%" stop-color="#001220" stop-opacity="1"></stop><stop offset="85.55555555555554%" stop-color="#001220" stop-opacity="1"></stop></linearGradient></defs><defs><linearGradient id="grad2_0" x1="0%" y1="0%" x2="56.3%" y2="100%"><stop offset="14.444444444444446%" stop-color="#001220" stop-opacity="1"></stop><stop offset="85.55555555555554%" stop-color="#001220" stop-opacity="1"></stop></linearGradient></defs><g transform="translate(1920, 0)"><path d="M0 270C-31.7 258.3 -63.5 246.6 -97.6 235.6C-131.7 224.6 -168.1 214.4 -190.9 190.9C-213.7 167.5 -222.8 130.8 -233.7 96.8C-244.6 62.8 -257.3 31.4 -270 0L0 0Z" fill="#FBAE3C"></path></g><g transform="translate(0, 1080)"><path d="M0 -270C34.9 -266.7 69.8 -263.5 103.3 -249.4C136.9 -235.4 169.1 -210.6 178.9 -178.9C188.7 -147.2 176.1 -108.6 187.5 -77.7C199 -46.7 234.5 -23.4 270 0L0 0Z" fill="#FBAE3C"></path></g></svg>