<svg id="visual" viewBox="0 0 1920 1080" width="1920" height="1080" xmlns="http://www.w3.org/2000/svg" xmlns:xlink="http://www.w3.org/1999/xlink" version="1.1"><rect width="1920" height="1080" fill="#f7f7f7"></rect><g><g transform="translate(1786 291)"><path d="M0 -106.3L92.1 -53.1L92.1 53.1L0 106.3L-92.1 53.1L-92.1 -53.1Z" fill="#2c4468"></path></g><g transform="translate(1049 652)"><path d="M0 -57L49.4 -28.5L49.4 28.5L0 57L-49.4 28.5L-49.4 -28.5Z" fill="#2c4468"></path></g><g transform="translate(1818 805)"><path d="M0 -61L52.8 -30.5L52.8 30.5L0 61L-52.8 30.5L-52.8 -30.5Z" fill="#2c4468"></path></g><g transform="translate(1193 866)"><path d="M0 -74L64.1 -37L64.1 37L0 74L-64.1 37L-64.1 -37Z" fill="#2c4468"></path></g><g transform="translate(825 591)"><path d="M0 -65L56.3 -32.5L56.3 32.5L0 65L-56.3 32.5L-56.3 -32.5Z" fill="#2c4468"></path></g><g transform="translate(1593 1037)"><path d="M0 -75L65 -37.5L65 37.5L0 75L-65 37.5L-65 -37.5Z" fill="#2c4468"></path></g><g transform="translate(734 223)"><path d="M0 -51L44.2 -25.5L44.2 25.5L0 51L-44.2 25.5L-44.2 -25.5Z" fill="#2c4468"></path></g><g transform="translate(1623 575)"><path d="M0 -77L66.7 -38.5L66.7 38.5L0 77L-66.7 38.5L-66.7 -38.5Z" fill="#2c4468"></path></g><g transform="translate(473 202)"><path d="M0 -60L52 -30L52 30L0 60L-52 30L-52 -30Z" fill="#2c4468"></path></g><g transform="translate(709 859)"><path d="M0 -56L48.5 -28L48.5 28L0 56L-48.5 28L-48.5 -28Z" fill="#2c4468"></path></g><g transform="translate(110 72)"><path d="M0 -39L33.8 -19.5L33.8 19.5L0 39L-33.8 19.5L-33.8 -19.5Z" fill="#2c4468"></path></g><g transform="translate(354 1000)"><path d="M0 -37L32 -18.5L32 18.5L0 37L-32 18.5L-32 -18.5Z" fill="#2c4468"></path></g><g transform="translate(415 659)"><path d="M0 -78L67.5 -39L67.5 39L0 78L-67.5 39L-67.5 -39Z" fill="#2c4468"></path></g><g transform="translate(1400 594)"><path d="M0 -51L44.2 -25.5L44.2 25.5L0 51L-44.2 25.5L-44.2 -25.5Z" fill="#2c4468"></path></g><g transform="translate(1365 5)"><path d="M0 -49L42.4 -24.5L42.4 24.5L0 49L-42.4 24.5L-42.4 -24.5Z" fill="#2c4468"></path></g><g transform="translate(194 393)"><path d="M0 -60L52 -30L52 30L0 60L-52 30L-52 -30Z" fill="#2c4468"></path></g><g transform="translate(595 462)"><path d="M0 -73L63.2 -36.5L63.2 36.5L0 73L-63.2 36.5L-63.2 -36.5Z" fill="#2c4468"></path></g><g transform="translate(51 707)"><path d="M0 -28L24.2 -14L24.2 14L0 28L-24.2 14L-24.2 -14Z" fill="#2c4468"></path></g><g transform="translate(1161 182)"><path d="M0 -43L37.2 -21.5L37.2 21.5L0 43L-37.2 21.5L-37.2 -21.5Z" fill="#2c4468"></path></g><g transform="translate(349 10)"><path d="M0 -35L30.3 -17.5L30.3 17.5L0 35L-30.3 17.5L-30.3 -17.5Z" fill="#2c4468"></path></g></g></svg>