<?xml version="1.0" encoding="utf-8"?>
<svg id="visual" viewBox="0 0 1920 1080" width="1920" height="1080" version="1.1" xmlns="http://www.w3.org/2000/svg">
  <rect x="0" y="0" width="1920" height="1080" fill="#f7f7f7"/>
  <path d="M -8.694 565.957 L 16.281 573.774 C 41.154 581.591 91.102 597.225 140.748 609.803 C 190.495 622.309 240.039 631.832 289.785 622.807 C 339.43 613.782 389.38 586.352 439.227 575.195 C 489.075 564.038 539.023 569.297 588.669 580.027 C 638.415 590.829 687.96 607.173 737.706 618.899 C 787.351 630.624 837.3 637.73 887.148 628.847 C 936.995 619.964 986.945 595.093 1036.791 577.896 C 1086.639 560.77 1136.588 551.247 1186.234 557.643 C 1235.98 564.038 1285.524 586.352 1335.271 593.458 C 1384.917 600.564 1434.865 592.463 1484.713 589.55 C 1534.56 586.565 1584.509 588.697 1634.154 602.91 C 1683.901 617.122 1733.445 643.415 1783.191 647.323 C 1832.837 651.232 1882.786 632.756 1907.659 623.518 L 1932.634 614.279 L 1932.634 722.294 L 1907.659 722.294 C 1882.786 722.294 1832.837 722.294 1783.191 722.294 C 1733.445 722.294 1683.901 722.294 1634.154 722.294 C 1584.509 722.294 1534.56 722.294 1484.713 722.294 C 1434.865 722.294 1384.917 722.294 1335.271 722.294 C 1285.524 722.294 1235.98 722.294 1186.234 722.294 C 1136.588 722.294 1086.639 722.294 1036.791 722.294 C 986.945 722.294 936.995 722.294 887.148 722.294 C 837.3 722.294 787.351 722.294 737.706 722.294 C 687.96 722.294 638.415 722.294 588.669 722.294 C 539.023 722.294 489.075 722.294 439.227 722.294 C 389.38 722.294 339.43 722.294 289.785 722.294 C 240.039 722.294 190.495 722.294 140.748 722.294 C 91.102 722.294 41.154 722.294 16.281 722.294 L -8.694 722.294 L -8.694 565.957 Z" fill="#2C4468" stroke-linecap="round" stroke-linejoin="miter" style=""/>
  <path d="M -14.727 670.398 L 10.323 676.486 C 35.27 682.575 85.369 694.753 135.163 704.551 C 185.059 714.292 234.75 721.71 284.646 714.68 C 334.441 707.651 384.539 686.284 434.536 677.593 C 484.532 668.903 534.632 672.999 584.427 681.357 C 634.322 689.771 684.014 702.502 733.91 711.635 C 783.704 720.769 833.803 726.304 883.799 719.384 C 933.797 712.466 983.894 693.092 1033.893 679.697 C 1083.889 666.356 1133.988 658.939 1183.781 663.922 C 1233.677 668.903 1283.371 686.284 1333.266 691.818 C 1383.061 697.354 1433.159 691.044 1483.156 688.774 C 1533.153 686.45 1583.251 688.11 1633.044 699.181 C 1682.941 710.252 1732.634 730.733 1782.529 733.777 C 1832.324 736.821 1882.421 722.429 1907.37 715.234 L 1932.42 708.038 L 1932.42 792.174 L 1907.37 792.174 C 1882.421 792.174 1832.324 792.174 1782.529 792.174 C 1732.634 792.174 1682.941 792.174 1633.044 792.174 C 1583.251 792.174 1533.153 792.174 1483.156 792.174 C 1433.159 792.174 1383.061 792.174 1333.266 792.174 C 1283.371 792.174 1233.677 792.174 1183.781 792.174 C 1133.988 792.174 1083.889 792.174 1033.893 792.174 C 983.894 792.174 933.797 792.174 883.799 792.174 C 833.803 792.174 783.704 792.174 733.91 792.174 C 684.014 792.174 634.322 792.174 584.427 792.174 C 534.632 792.174 484.532 792.174 434.536 792.174 C 384.539 792.174 334.441 792.174 284.646 792.174 C 234.75 792.174 185.059 792.174 135.163 792.174 C 85.369 792.174 35.27 792.174 10.323 792.174 L -14.727 792.174 L -14.727 670.398 Z" fill="#2C4468" stroke-linecap="round" stroke-linejoin="miter" style="" transform="matrix(-1, 0, 0, -1, 1917.693094, 1454.537048)"/>
</svg>