<svg id="visual" viewBox="0 0 1920 1080" width="1920" height="1080" xmlns="http://www.w3.org/2000/svg" xmlns:xlink="http://www.w3.org/1999/xlink" version="1.1"><rect x="0" y="0" width="1920" height="1080" fill="#f7f7f7"></rect><path d="M0 861L24.7 872C49.3 883 98.7 905 147.8 922.7C197 940.3 246 953.7 295.2 941C344.3 928.3 393.7 889.7 443 874C492.3 858.3 541.7 865.7 590.8 880.8C640 896 689 919 738.2 935.5C787.3 952 836.7 962 886 949.5C935.3 937 984.7 902 1034 877.8C1083.3 853.7 1132.7 840.3 1181.8 849.3C1231 858.3 1280 889.7 1329.2 899.7C1378.3 909.7 1427.7 898.3 1477 894.2C1526.3 890 1575.7 893 1624.8 913C1674 933 1723 970 1772.2 975.5C1821.3 981 1870.7 955 1895.3 942L1920 929L1920 1081L1895.3 1081C1870.7 1081 1821.3 1081 1772.2 1081C1723 1081 1674 1081 1624.8 1081C1575.7 1081 1526.3 1081 1477 1081C1427.7 1081 1378.3 1081 1329.2 1081C1280 1081 1231 1081 1181.8 1081C1132.7 1081 1083.3 1081 1034 1081C984.7 1081 935.3 1081 886 1081C836.7 1081 787.3 1081 738.2 1081C689 1081 640 1081 590.8 1081C541.7 1081 492.3 1081 443 1081C393.7 1081 344.3 1081 295.2 1081C246 1081 197 1081 147.8 1081C98.7 1081 49.3 1081 24.7 1081L0 1081Z" fill="#2C4468" stroke-linecap="round" stroke-linejoin="miter"></path></svg>